<svg xmlns="http://www.w3.org/2000/svg" width="40" height="40" viewBox="0 0 40 40" fill="none">
  <path d="M40 20.1239C40 9.00671 31.0413 1.52588e-05 20 1.52588e-05C8.95125 1.52588e-05 0 9.00671 0 20.1239C0 30.1657 7.31125 38.492 16.875 40V25.9422H11.7963V20.1252H16.875V15.6891C16.875 10.6468 19.8563 7.86217 24.4263 7.86217C26.615 7.86217 28.9062 8.25458 28.9062 8.25458V13.2063H26.38C23.9 13.2063 23.125 14.7596 23.125 16.3507V20.1239H28.6712L27.78 25.941H23.125V39.9988C32.6813 38.4907 40 30.1645 40 20.1226V20.1239Z" fill="#F5F5F5"/>
</svg>