<svg xmlns="http://www.w3.org/2000/svg" width="33" height="32" viewBox="0 0 33 32" fill="none">
  <path d="M16.6001 0C7.8259 0 0.600098 7.30464 0.600098 16.409C0.600098 23.6078 5.19365 29.7479 11.5936 31.9711C12.4195 32.1298 12.6775 31.6005 12.6775 31.23C12.6775 30.8595 12.6775 29.8008 12.6259 28.3717C8.18719 29.4303 7.25816 26.1485 7.25816 26.1485C6.53558 24.2959 5.45171 23.7666 5.45171 23.7666C4.00655 22.7079 5.50332 22.7079 5.50332 22.7079C7.10332 22.7608 7.98074 24.4017 7.98074 24.4017C9.37429 26.9425 11.7485 26.2014 12.6259 25.7251C12.7807 24.6664 13.1936 23.9254 13.6582 23.5019C10.1485 23.1314 6.38074 21.7022 6.38074 15.4562C6.38074 13.6565 7.05171 12.2273 8.03236 11.1158C7.87752 10.7452 7.30977 9.05141 8.18719 6.77532C8.18719 6.77532 9.58074 6.35186 12.6259 8.46915C13.9162 8.09863 15.2582 7.8869 16.6517 7.8869C18.0453 7.8869 19.4388 8.0457 20.6775 8.46915C23.7227 6.4048 25.0646 6.77532 25.0646 6.77532C25.942 8.99848 25.4259 10.7452 25.2195 11.1158C26.2517 12.2273 26.8711 13.7094 26.8711 15.4562C26.8711 21.7022 23.1033 23.1314 19.5936 23.5019C20.1614 24.0312 20.6775 25.0899 20.6775 26.572C20.6775 28.7951 20.6259 30.5419 20.6259 31.0712C20.6259 31.4947 20.9356 31.9711 21.7098 31.8123C28.0065 29.642 32.6001 23.5548 32.6001 16.3031C32.5485 7.30464 25.3743 0 16.6001 0Z" fill="white"/>
</svg>