<svg xmlns="http://www.w3.org/2000/svg" width="40" height="40" viewBox="0 0 40 40" fill="none">
  <path d="M39.9238 4.76586C38.4525 5.5594 36.8775 6.10534 35.2175 6.35294C36.9113 5.10265 38.2062 3.12495 38.8237 0.768935C37.235 1.90696 35.4775 2.73126 33.6087 3.19723C32.1188 1.23491 29.9888 0 27.625 0C23.0938 0 19.4212 4.51672 19.4212 10.0838C19.4212 10.885 19.5 11.654 19.6362 12.3829C12.82 11.9908 6.7775 7.96155 2.73625 1.87466C2.02625 3.35717 1.6225 5.07958 1.6225 6.95425C1.6225 10.4621 3.07375 13.5379 5.2675 15.3464C3.92625 15.2987 2.66375 14.842 1.5575 14.09V14.2115C1.5575 19.1034 4.3825 23.1819 8.1325 24.1107C7.44875 24.3337 6.71875 24.4629 5.9775 24.4629C5.45125 24.4629 4.94875 24.3998 4.4475 24.286C5.5025 28.2907 8.5225 31.2065 12.1225 31.2941C9.32375 33.9931 5.77625 35.6017 1.95375 35.6017C1.3025 35.6017 0.6525 35.5632 0 35.4664C3.64625 38.3268 7.95 40 12.5987 40C27.6825 40 35.925 24.629 35.925 11.3172C35.925 10.8927 35.925 10.4606 35.8988 10.0269C37.5075 8.61669 38.9 6.82968 40 4.80431L39.9238 4.76586Z" fill="#F5F5F5"/>
</svg>